<svg width="88" height="73" fill="none" xmlns="http://www.w3.org/2000/svg"><path d="M24.5815.9678c-6.3766 0-12.492 2.502-17.0009 6.9556C3.0717 12.3771.5386 18.4175.5386 24.716c0 2.1589.3935 4.3178.9618 6.4768h17.8354l5.5517-14.5512c1.3114-3.4542 6.4697-3.7997 8.1308 0l9.0489 23.1868 2.5792-6.1313c.5682-1.4249 2.0982-2.5043 3.9779-2.5043h38.3812c.5683-2.159.9617-4.3179.9617-6.4768 0-6.2984-2.5331-12.3388-7.042-16.7925C76.4163 3.4698 70.3009.9678 63.9243.9678c-8.1308 0-15.3 4.0156-19.6714 10.1037C39.8815 4.9834 32.7123.9678 24.5815.9678ZM4.9101 37.6694c-1.1594 0-2.2713.4549-3.0911 1.2647-.8198.8097-1.2804 1.908-1.2804 3.0532 0 1.1451.4606 2.2434 1.2804 3.0531.8198.8098 1.9317 1.2647 3.091 1.2647h10.6663l24.3052 23.7481c4.3714 3.8861 4.3714 3.8861 8.7428 0l24.3052-23.7481h10.6663c1.1593 0 2.2712-.4549 3.091-1.2647.8198-.8097 1.2804-1.908 1.2804-3.0531 0-1.1452-.4606-2.2435-1.2804-3.0532-.8198-.8098-1.9317-1.2647-3.091-1.2647H50.3729l-4.0654 9.9311c-1.7486 4.361-6.7757 3.7565-8.3932.1295l-8.9614-23.0141-4.1966 10.0606c-.6557 1.6407-2.142 2.8929-4.1091 2.8929H4.9101Z" fill="#EC5863"/></svg>