<svg width="68" height="73" fill="none" xmlns="http://www.w3.org/2000/svg"><path d="M33.7249.6384c-5.8376 0-9.3318.8862-11.5529 1.9911-1.1119.5538-1.9014 1.1354-2.4323 1.7308-.5338.5954-.8701 1.4704-.8701 1.4704a2.7614 2.7614 0 0 0-.1724.6923l-1.4788 18.9527c-.0195.1163.0194.3046 0 .432l-.1724 1.9052a2.7645 2.7645 0 0 0 0 .5178c0 9.1385 7.5055 16.6154 16.6789 16.6154 9.1734 0 16.6789-7.4769 16.6789-16.6154v-.432a2.454 2.454 0 0 0 0-.0858L48.7526 6.523a2.7612 2.7612 0 0 0-.1723-.6923s-.3364-.875-.8701-1.4704c-.531-.5982-1.3204-1.1797-2.4324-1.7308-2.221-1.1077-5.7153-1.991-11.5529-1.991Zm0 44.3077c-18.3468 0-33.3578 8.6013-33.3578 16.3551v11.3372h66.7156V61.3012c0-7.3662-13.571-15.48-30.6641-16.2692a39.8787 39.8787 0 0 0-2.6937-.0859Zm0-38.7692c5.2817 0 7.9197.8308 9.0344 1.3846.3725.1855.417.2575.5226.3462L44.4105 22.1c-2.5574.155-6.0433.6923-10.6856.6923-4.6423 0-8.1254-.5373-10.6856-.6923l1.1286-14.1923c.1029-.0887.1501-.1607.5226-.3462 1.1147-.5538 3.7528-1.3846 9.0344-1.3846Zm-2.26 2.7692v3.2899h-3.2996v4.5h3.3024v3.287h4.5144v-3.2898h3.3025V12.236h-3.3025V8.9461h-4.5172ZM25.3855 51.177 32.5101 67.1H5.9268v-5.7988c0-2.0631 7.0885-8.1055 19.4587-10.1243Zm16.6789 0c12.3702 2.0215 19.4587 8.0612 19.4587 10.1243V67.1H34.9397l7.1247-15.9231Z" fill="#EC5863"/></svg>