<svg width="548" height="395" fill="none" xmlns="http://www.w3.org/2000/svg"><path opacity=".6" d="M318.251 69.5496c-35.068-1.2195-68.493-12.5478-100.363-24.9394-31.869-12.3915-63.457-26.1236-97.703-32.6897-22.0186-4.228-47.1998-4.8226-64.9375 6.9894-17.0729 11.3636-22.5876 30.9815-25.554 49.1834-2.231 13.6967-3.5253 28.109 2.5736 40.9337 4.2455 8.9 11.7798 16.383 16.9923 24.909 18.1305 29.667 5.3132 66.252-14.3382 95.243-9.2164 13.606-19.9083 26.552-27.0195 41.019-7.1112 14.468-10.405 31.042-4.1801 45.797 6.1694 14.614 20.8652 25.61 36.7898 33.335 32.3428 15.677 70.4526 20.162 107.6146 22.732 82.262 5.629 164.968 3.19 247.446.751 30.525-.907 61.186-1.819 91.212-6.551 16.675-2.625 33.894-6.788 46.001-16.836 15.366-12.76 19.178-34.358 8.879-50.358-17.274-26.829-65.033-33.496-77.11-62.29-6.643-15.849.181-33.506 9.841-48.206 20.714-31.53 55.444-59.196 57.272-95.242 1.259-24.758-15.436-49.5462-41.252-61.2625-27.055-12.2908-64.575-10.7387-84.533 9.5746-20.553 20.9281-56.673 28.9809-87.631 27.9075Z" fill="#587EEC"/><path d="M122.436 365.36s-27.6992-20.953-32.9318-47.606a52.692 52.692 0 0 0-16.2218-29.082 88.6456 88.6456 0 0 0-12.9784-9.675" stroke="#9AB1F3" stroke-width="2" stroke-miterlimit="10"/><path d="M56.9146 262.206c2.4274 3.286 3.5253 17.209 3.5253 17.209s-12.9784-5.114-15.4109-8.395a7.4037 7.4037 0 0 1-1.3736-5.495 7.4021 7.4021 0 0 1 2.9122-4.858 7.3959 7.3959 0 0 1 5.4921-1.375 7.3976 7.3976 0 0 1 4.8549 2.914ZM80.1922 273.131c.2519 4.077-6.3809 16.363-6.3809 16.363s-8.1235-11.359-8.3803-15.435a7.399 7.399 0 0 1 1.8693-5.299 7.39 7.39 0 0 1 10.3698-.652 7.3998 7.3998 0 0 1 2.5171 5.023h.005ZM102.755 304.536c-1.834 3.649-13.7645 10.905-13.7645 10.905s-1.2742-13.908.559-17.557a7.3991 7.3991 0 0 1 4.2873-3.6 7.3902 7.3902 0 0 1 5.5796.438 7.3975 7.3975 0 0 1 3.6746 4.224 7.407 7.407 0 0 1-.336 5.59ZM114.484 332.131c-1.194 3.906-11.725 13.072-11.725 13.072s-3.6106-13.49-2.417-17.401a7.3953 7.3953 0 0 1 3.601-4.368 7.389 7.389 0 0 1 5.633-.542 7.3959 7.3959 0 0 1 4.366 3.602 7.3995 7.3995 0 0 1 .542 5.637ZM61.8047 299.371c4.029.544 16.7657-5.211 16.7657-5.211s-10.7473-8.909-14.7965-9.453a7.3843 7.3843 0 0 0-5.4699 1.451 7.3973 7.3973 0 0 0-2.8424 4.896 7.4014 7.4014 0 0 0 1.45 5.473 7.3907 7.3907 0 0 0 4.8931 2.844ZM75.9314 331.476c4.029-.69 14.4389-9.988 14.4389-9.988s-12.923-5.281-16.947-4.591a7.386 7.386 0 0 0-2.7145 1.023 7.381 7.381 0 0 0-2.1127 1.988 7.4015 7.4015 0 0 0-1.1858 2.648 7.4058 7.4058 0 0 0-.0762 2.902 7.3944 7.3944 0 0 0 3.0503 4.803c.8003.56 1.7033.955 2.6571 1.164a7.3923 7.3923 0 0 0 2.9.051h-.0101ZM93.936 360.8c4.0844 0 15.92-7.403 15.92-7.403s-11.8407-7.393-15.9251-7.393c-1.9608 0-3.8413.78-5.2278 2.167a7.4012 7.4012 0 0 0 0 10.462 7.3926 7.3926 0 0 0 5.2278 2.167h.0051Z" fill="#587EEC"/><path d="M391.523 184.133s17.073-30.261 42.808-38.979a52.6426 52.6426 0 0 0 26.652-19.951 88.3449 88.3449 0 0 0 7.852-14.175" stroke="#9AB1F3" stroke-width="2" stroke-miterlimit="10"/><path d="M484.991 105.485c-2.931 2.842-16.574 5.785-16.574 5.785s3.349-13.5559 6.28-16.4031a7.3911 7.3911 0 0 1 5.231-1.9953 7.3898 7.3898 0 0 1 5.128 2.2446 7.3993 7.3993 0 0 1 2.087 5.1978 7.3998 7.3998 0 0 1-2.152 5.171ZM477.275 129.991c-4.029.796-17.057-4.153-17.057-4.153s10.173-9.574 14.177-10.355a7.3819 7.3819 0 0 1 2.924-.057c.969.177 1.893.545 2.718 1.083a7.4244 7.4244 0 0 1 2.085 2.053c.551.816.934 1.735 1.126 2.701.192.966.189 1.962-.009 2.927a7.4108 7.4108 0 0 1-1.142 2.694 7.3983 7.3983 0 0 1-4.822 3.107ZM449.193 156.538c-3.857-1.336-12.626-12.2-12.626-12.2s13.598-3.115 17.466-1.779c.929.308 1.788.798 2.527 1.442a7.388 7.388 0 0 1 1.775 2.305c.433.878.688 1.834.749 2.812.061.978-.072 1.958-.393 2.884-.32.925-.821 1.778-1.474 2.509a7.3968 7.3968 0 0 1-2.327 1.745c-.884.422-1.842.665-2.82.713a7.3948 7.3948 0 0 1-2.877-.431ZM423.388 171.837c-4.029-.665-14.485-9.912-14.485-9.912s12.888-5.372 16.912-4.707a7.399 7.399 0 0 1 4.812 2.99 7.408 7.408 0 0 1 1.289 5.519 7.3983 7.3983 0 0 1-2.988 4.814 7.394 7.394 0 0 1-5.515 1.291l-.025.005ZM448.841 115.241c-.005 4.087 7.403 15.944 7.403 15.944s7.398-11.842 7.398-15.924a7.3976 7.3976 0 0 0-4.516-7.009 7.3882 7.3882 0 0 0-5.748 0c-.91.384-1.733.946-2.422 1.654a7.3976 7.3976 0 0 0-2.095 5.355l-.02-.02ZM418.91 133.513c1.219 3.901 11.815 12.996 11.815 12.996s3.526-13.515 2.297-17.415a7.3991 7.3991 0 0 0-3.663-4.154 7.3873 7.3873 0 0 0-5.519-.444 7.3943 7.3943 0 0 0-4.279 3.515 7.4028 7.4028 0 0 0-.641 5.502h-.01ZM392.284 155.268c.544 4.031 9.448 14.8 9.448 14.8s5.746-12.724 5.202-16.771a7.4208 7.4208 0 0 0-.89-2.791 7.404 7.404 0 0 0-1.904-2.226 7.3698 7.3698 0 0 0-2.618-1.312 7.3864 7.3864 0 0 0-2.922-.193c-.977.132-1.917.457-2.767.958a7.4142 7.4142 0 0 0-2.179 1.957 7.4094 7.4094 0 0 0-1.248 2.651 7.4015 7.4015 0 0 0-.122 2.927Z" fill="#587EEC"/><path opacity=".25" d="M484.991 105.485c-2.931 2.842-16.574 5.785-16.574 5.785s3.349-13.5559 6.28-16.4031a7.3911 7.3911 0 0 1 5.231-1.9953 7.3898 7.3898 0 0 1 5.128 2.2446 7.3993 7.3993 0 0 1 2.087 5.1978 7.3998 7.3998 0 0 1-2.152 5.171ZM477.275 129.991c-4.029.796-17.057-4.153-17.057-4.153s10.173-9.574 14.177-10.355a7.3819 7.3819 0 0 1 2.924-.057c.969.177 1.893.545 2.718 1.083a7.4244 7.4244 0 0 1 2.085 2.053c.551.816.934 1.735 1.126 2.701.192.966.189 1.962-.009 2.927a7.4108 7.4108 0 0 1-1.142 2.694 7.3983 7.3983 0 0 1-4.822 3.107ZM449.193 156.538c-3.857-1.336-12.626-12.2-12.626-12.2s13.598-3.115 17.466-1.779c.929.308 1.788.798 2.527 1.442a7.388 7.388 0 0 1 1.775 2.305c.433.878.688 1.834.749 2.812.061.978-.072 1.958-.393 2.884-.32.925-.821 1.778-1.474 2.509a7.3968 7.3968 0 0 1-2.327 1.745c-.884.422-1.842.665-2.82.713a7.3948 7.3948 0 0 1-2.877-.431ZM423.388 171.837c-4.029-.665-14.485-9.912-14.485-9.912s12.888-5.372 16.912-4.707a7.399 7.399 0 0 1 4.812 2.99 7.408 7.408 0 0 1 1.289 5.519 7.3983 7.3983 0 0 1-2.988 4.814 7.394 7.394 0 0 1-5.515 1.291l-.025.005ZM448.841 115.241c-.005 4.087 7.403 15.944 7.403 15.944s7.398-11.842 7.398-15.924a7.3976 7.3976 0 0 0-4.516-7.009 7.3882 7.3882 0 0 0-5.748 0c-.91.384-1.733.946-2.422 1.654a7.3976 7.3976 0 0 0-2.095 5.355l-.02-.02ZM418.91 133.513c1.219 3.901 11.815 12.996 11.815 12.996s3.526-13.515 2.297-17.415a7.3991 7.3991 0 0 0-3.663-4.154 7.3873 7.3873 0 0 0-5.519-.444 7.3943 7.3943 0 0 0-4.279 3.515 7.4028 7.4028 0 0 0-.641 5.502h-.01ZM392.284 155.268c.544 4.031 9.448 14.8 9.448 14.8s5.746-12.724 5.202-16.771a7.4208 7.4208 0 0 0-.89-2.791 7.404 7.404 0 0 0-1.904-2.226 7.3698 7.3698 0 0 0-2.618-1.312 7.3864 7.3864 0 0 0-2.922-.193c-.977.132-1.917.457-2.767.958a7.4142 7.4142 0 0 0-2.179 1.957 7.4094 7.4094 0 0 0-1.248 2.651 7.4015 7.4015 0 0 0-.122 2.927Z" fill="#000"/><path d="M392.505 183.533s3.354-34.59 23.328-52.983a52.703 52.703 0 0 0 16.287-29.046 88.3688 88.3688 0 0 0 1.456-16.1259" stroke="#9AB1F3" stroke-width="2" stroke-miterlimit="10"/><path d="M446.096 73.7071c-1.511 3.7895-12.812 12.0136-12.812 12.0136s-2.428-13.7522-.902-17.5417a7.4 7.4 0 0 1 3.967-4.0396 7.3915 7.3915 0 0 1 5.66-.0498 7.394 7.394 0 0 1 4.037 3.9694 7.3995 7.3995 0 0 1 .05 5.6632v-.0151ZM448.972 99.2663c-3.339 2.3487-17.275 3.1197-17.275 3.1197s5.429-12.8707 8.768-15.219a7.3902 7.3902 0 0 1 8.342-.3547 7.397 7.397 0 0 1 2.135 2.0198c.569.8093.97 1.7248 1.179 2.692.21.9673.223 1.9668.039 2.9392a7.4003 7.4003 0 0 1-1.108 2.7224 7.4006 7.4006 0 0 1-2.08 2.0755v.0051ZM434.034 134.934c-4.069.343-16.488-6.047-16.488-6.047s11.18-8.365 15.249-8.708a7.3946 7.3946 0 0 1 5.392 1.721 7.4013 7.4013 0 0 1 2.596 5.032 7.3986 7.3986 0 0 1-1.72 5.394 7.3929 7.3929 0 0 1-5.029 2.598v.01ZM416.654 159.37c-3.953 1.008-17.269-3.16-17.269-3.16s9.604-10.134 13.557-11.162a7.3945 7.3945 0 0 1 5.604.784 7.3965 7.3965 0 0 1 3.409 4.52 7.402 7.402 0 0 1-.784 5.607 7.3972 7.3972 0 0 1-4.517 3.411ZM417.007 97.311c1.652 3.734 13.205 11.59 13.205 11.59s1.964-13.8275.312-17.5616a7.393 7.393 0 0 0-4.105-3.7772 7.3904 7.3904 0 0 0-9.446 4.1836 7.4022 7.4022 0 0 0 .034 5.5803v-.0151ZM397.043 126.146c2.694 3.069 16.061 7.09 16.061 7.09s-2.257-13.782-4.951-16.851a7.4042 7.4042 0 0 0-2.288-1.8 7.387 7.387 0 0 0-2.805-.776 7.3857 7.3857 0 0 0-2.887.366c-.928.313-1.785.807-2.521 1.454a7.3632 7.3632 0 0 0-1.766 2.314c-.43.881-.681 1.838-.737 2.817-.057.978.081 1.958.407 2.883.325.925.83 1.775 1.487 2.503ZM381.486 156.845c2.135 3.477 14.63 9.701 14.63 9.701s.106-13.964-2.014-17.446a7.3968 7.3968 0 0 0-4.572-3.16 7.3944 7.3944 0 0 0-5.48.919 7.401 7.401 0 0 0-3.292 4.478 7.4032 7.4032 0 0 0 .753 5.508h-.025Z" fill="#587EEC"/><path d="M366.82 48.0723c.836-3.0689 1.844-6.1529 2.549-9.2622-.846 3.1093-1.859 6.2034-2.549 9.2622Z" fill="url(#a)"/><path d="M363.073 77.6327c-.07-.121-.12-.2419-.176-.3528 0-.0504-.05-.0907-.07-.1411-.11.0518-.223.0973-.338.1361-.221.0857-.448.1663-.68.2318-.231.0655-.327.1008-.503.1411a2.9183 2.9183 0 0 1-.449.1159l.041.0907c.186-.0403.367-.0756.554-.126l.05.6249c.212 0 .408-.0302.599-.0302.091-.005.182-.005.272 0h1.008c-.106-.2268-.217-.4637-.308-.6904ZM465.309 240.467c-2.367-3.19-7.091-37.427-7.091-37.427s-9.292-24.345-6.758-34.06c2.533-9.716-6.92-34.575-6.92-34.575s-6.245-2.716-6.583-6.747c0 0-25.498-8.063-26.692-14.11-.967-4.959-16.781-8.517-22.461-9.641-1.733-6.9941-3.475-13.5199-4.76-17.0827-.347-1.1086-.675-2.0661-.977-2.822-2.17-5.5432-8.879-6.0471-13.744-5.6037a7.483 7.483 0 0 0-1.153-2.6355 1.4462 1.4462 0 0 0-.458-.7005 2.7066 2.7066 0 0 0-.333-.2418 1.5988 1.5988 0 0 0-.342-.4334 2.409 2.409 0 0 0-.453-.3225 3.0466 3.0466 0 0 0-.363-.1663 4.8603 4.8603 0 0 0-.901-.247 7.4364 7.4364 0 0 0-1.088-.141 6.6176 6.6176 0 0 0 2.321-1.6983 4.834 4.834 0 0 0 .952-1.7537c.16-.5358.231-1.094.212-1.6528a4.3624 4.3624 0 0 1-.453.65c.211-2.2324-.967-4.5001-1.642-6.7224a19.897 19.897 0 0 1-.444-8.8943c.675-4.4648 2.347-8.98 3.481-13.5254a.477.477 0 0 0 0-.0756 35.0832 35.0832 0 0 0 1.097-6.8988c.197-4.7016-1.007-9.3932-2.941-13.6765-1.717-3.7946-4.25-7.5287-8.128-9.0707-2.881-1.1641-6.109-.9777-9.212-1.1692-6.96-.4333-13.597-2.8824-20.215-5.1098C322.642 1.6858 315.833-.34 308.868.048c-6.965.388-14.132 3.7492-17.309 9.9173-1.008 1.925-1.587 4.0667-2.791 5.8758-2.256 3.4116-6.295 5.1199-9.664 7.4732-3.369 2.3534-6.336 5.6944-7.554 9.6805a12.9112 12.9112 0 0 0-.272 6.6266c.109.4957.251.9838.423 1.4614a10.3577 10.3577 0 0 0 2.19 3.5829c.73.7628 1.568 1.4132 2.488 1.9301a14.6403 14.6403 0 0 0 3.677 1.4311c-.046.1512-.091.3125-.141.4687-.081.257-.151.5039-.227.7811-.166.6198-.322 1.2497-.453 1.8847a.6184.6184 0 0 0 0 .136 41.1895 41.1895 0 0 0-.927 8.723c-.001 1.3868.07 2.7728.212 4.1524 2.014 20.4493 18.886 36.5802 39.731 37.6282.715.035 1.435.055 2.165.055h1.008c.327.434.649.877.956 1.311.308.433.59.877.857 1.31l-.731-.756-.73-.67c-.198.272-.419.526-.66.761-.476-.168-.962-.306-1.455-.414-2.09-.463-5.273-.634-9.463.63-3.853 1.154-8.562 3.528-14.072 8.038l-26.848 16.126-14.524 8.839-5.233 12.799s-3.933 15.209-8.31 32.635c-.171.05-.337.1-.503.161a9.532 9.532 0 0 0-1.068-.061 9.8136 9.8136 0 0 0-6.815 2.732 9.8251 9.8251 0 0 0-3.016 6.697c-8.703 10.582-9.196 21.165-7.151 26.023.185.455.418.889.695 1.295 1.339 1.935 3.842 6.924 6.381 12.24-.066.439-.106.807-.126 1.084-.005.09-.005.181 0 .272 0 0 1.51 22.833-3.526 29.379-1.103 1.426-.937 3.301 0 5.377 3.375 7.468 16.716 17.441 16.716 17.441s16-.086 24.914-1.059c-.025.897-.045 1.789-.066 2.661-.201 8.809-.201 16.191-.201 16.191l-.332 9.237s-3.022 19.467-4.533 24.834c-.952 3.366.146 34.534 1.103 57.448h157.645c1.853-13.556-.761-54.742-.761-54.742s-2.483-10.648-2.573-19.93a.08.08 0 0 1-.008-.033c0-.011.003-.023.008-.033 0-.811 0-1.602.03-2.378l1.143-.041 2.055-.07h.186s.051-.192.166-.504a9.638 9.638 0 0 1 1.103-2.202c.877-1.295 2.247-2.565 4.306-2.651 1.139-.045 2.901-.968 4.891-2.328a.09.09 0 0 0 .04 0c5.353-3.623 12.429-10.311 14.147-11.409 2.362-1.512 13.673-11.59 13.673-11.59s1.687-2.137 3.485-4.712l.066-.091c2.236-3.225 4.613-7.08 4.029-8.295-1.008-2.176.675-7.382.675-7.382 5.252-9.62-.313-22.369-2.68-25.559ZM367.923 85.4688c.049.1504.079.306.091.4636-.126-.1663-.252-.3427-.378-.504l-.121-.1612-.085-.121.191-.262v.0353c.133.1633.235.3494.302.5493Zm-1.692-4.4648c-.549.1108-.982.2116-1.264.2872-.358-.635-.7-1.2699-1.007-1.9149a14.597 14.597 0 0 1 2.271 1.6277Zm-.947.7962a.1534.1534 0 0 1 0-.0303l.041.0303c.206.136.408.267.594.4031.166.1209.317.2368.468.3578-.101.1764-.211.3578-.322.5039-.176-.2772-.343-.5442-.504-.8214-.1-.1108-.191-.262-.277-.4434Zm-3.021-6.2185a14.8842 14.8842 0 0 1 2.926 0c.136 0 .256.0252.377.0453.273.0423.542.1115.801.2067a5.8593 5.8593 0 0 1 1.063 2.827l-.272.0403-.267.0504c-.504.0857-1.007.1713-1.4.252l-.504.1058c-.67.1461-1.057.257-1.073.262a9.6544 9.6544 0 0 0-.201-.393c-.111-.2167-.227-.4385-.327-.6551-.101-.2167-.232-.4637-.338-.6904-.07-.121-.121-.2419-.176-.3528 0-.0504-.05-.0907-.071-.1411a1.2487 1.2487 0 0 1-.075-.1663c-.307-.6248-.589-1.2497-.861-1.8645-.031-.0605-.056-.126-.081-.1865l.383-.0252v.1311l.096.5543ZM242.103 388.188c-.041-7.503-.585-15.622-2.096-23.241a779.518 779.518 0 0 0-1.984-9.665c-.171-.797-.337-1.583-.503-2.369l-1.552.207h-.141c-4.23-19.961-8.652-37.548-8.652-37.548s-8.783-33.556-7.766-36.232c.131-.348-.035-1.285-.408-2.661-2.125-7.63-10.999-28.653-14.101-35.839 0-.031-.025-.066-.036-.091-.503-1.204-.866-2.016-.977-2.253l.731-10.723.04-.645.096-1.371-.041-.035.041-.635s-7.665-6.289-20.649-10.83c-.504-.181-1.037-.357-1.566-.529.649-4.338 1.511-9.237 2.634-14.009.106-.479.221-.942.342-1.411.106-.468.227-.922.348-1.381.191-.745.398-1.481.609-2.207.7-.222 1.39-.468 2.07-.73l.262-.101c8.376-3.261 15.287-9.449 19.453-17.417a37.2102 37.2102 0 0 0 3.21-25.921 36.9855 36.9855 0 0 0-6.487-13.682c-.231-.312-.478-.625-.725-.932-.247-.307-.544-.65-.821-.962 1.456-3.311 3.173-6.461 3.314-9.681.025-.408.025-.817 0-1.224v-.051c-.186-2.071-1.103-4.167-3.238-6.369-3.118-3.231-7.555-4.868-11.992-5.655-4.437-.786-8.959-.806-13.421-1.335-7.398-.887-14.605-3.17-22.004-3.87a52.2541 52.2541 0 0 0-26.606 4.535c-5.505 2.52-11.08 6.924-11.412 12.966-.272 4.994 3.203 9.782 2.326 14.715-.871 4.848-5.806 8.663-5.373 13.566.166 1.915 1.148 3.628 2.377 5.155.423.504.871 1.008 1.335 1.512 1.792 1.9 3.767 3.724 4.769 6.117.04.101.08.202.116.303.851 2.363.468 5.351-1.637 6.707.012.009.02.021.025.035.03.041.061.071.086.111a.0358.0358 0 0 0 0-.025 5.51 5.51 0 0 0 2.875 1.794l.428.131c-.347.378-.674.771-1.007 1.184l-.216.287c-.555.747-1.06 1.53-1.511 2.344-.257.453-.504.907-.71 1.36a17.0972 17.0972 0 0 0-1.486 4.369c-.539 3.336.222 6.813-.594 10.079-1.008 4.031-4.195 7.125-5.993 10.87-3.405 7.055-1.476 15.334-.791 23.125.932 10.582-.579 21.21-2.085 31.722-.799 5.59-1.598 11.186-2.397 16.786-2.015 14.056-4.029 28.112-6.044 42.169-.735 5.15-1.606 10.582-5.0361 14.558h.0352s0 .03-.0352.04a10.505 10.505 0 0 0 3.2431.837c4.477.448 9.222-1.719 13.251-4.087a62.7365 62.7365 0 0 0 9.03-6.344c-.413 1.511-.857 3.159-1.33 4.933a.209.209 0 0 1 0 .05c-5.686 21.669-14.832 61.394-14.832 61.394s-.831 1.728-1.908 4.303h142.022c-1.662-2.015-3.208-3.945-4.417-5.502l-.488-.701ZM136.946 187.826c.035-.06.06-.115.095-.171v1.094c0 .07 0 0 0 0 0 .206-.045.413-.08.62v.045l.503.186.585.242a150.746 150.746 0 0 0 10.485 3.704c.363.116.73.227 1.098.333l.075.625c.091.64.177 1.29.257 1.94v.05c.227 1.799.449 3.593.645 5.347 0 0-9.247-3.528-9.131 1.829-.005.096-.005.192 0 .287-.01.128-.01.256 0 .383.086 4.173 1.39 6.647 1.652 7.917a.3667.3667 0 0 1-.08.141 2.7515 2.7515 0 0 0-.222 1.557c-.009.902.062 1.802.211 2.691-.272.166-.538.333-.805.504-.202.126-.393.267-.59.408a74.8154 74.8154 0 0 0-4.829-12.457c-1.385-2.852-2.942-5.825-2.926-8.955 0-.201 0-.408.025-.614.056-.907.229-1.803.513-2.666.116-.328.242-.65.383-.968.329-.754.697-1.491 1.103-2.207.262-.474.539-.942.806-1.416.086-.141.166-.287.247-.428l-.02-.021ZM363.073 77.6327c-.07-.121-.12-.2419-.176-.3528 0-.0504-.05-.0907-.07-.1411-.11.0518-.223.0973-.338.1361-.221.0857-.448.1663-.68.2318-.231.0655-.327.1008-.503.1411l-.449.1159.041.0907c.186-.0403.367-.0756.554-.126l.05.6249c.212 0 .408-.0302.599-.0302h1.28c-.106-.2268-.217-.4637-.308-.6904Z" fill="url(#b)"/><path d="m253.031 151.65-3.021 1.335s-19.697 76.567-19.697 82.755c0 6.188 41.765 40.622 41.765 40.622l6.517-44.014s-9.357-100.931-25.564-80.698Z" fill="#E8F5FF"/><path d="m344.646 127.295-17.451-9.111a34.9678 34.9678 0 0 0-5.117-11.666c-2.553-3.689-5.948-7.3122-10.178-9.202-10.692-4.7973 45.225-29.9786 45.225-29.9786a90.9422 90.9422 0 0 0 3.108 8.9195c2.881 7.1155 7.66 16.3172 13.819 18.9376 10.471 4.4598-29.406 32.1005-29.406 32.1005Z" fill="#FFB0B1"/><path opacity=".1" d="M360.233 76.2569a41.7164 41.7164 0 0 1-14.204 21.2824 41.6753 41.6753 0 0 1-23.951 8.9787c-2.553-3.689-5.948-7.3122-10.178-9.202-10.692-4.7974 45.225-29.9786 45.225-29.9786a90.9422 90.9422 0 0 0 3.108 8.9195Z" fill="#000"/><path d="M361.804 63.5429a41.709 41.709 0 0 1-7.017 23.1649 41.6703 41.6703 0 0 1-18.697 15.3592 41.6418 41.6418 0 0 1-24.075 2.376 41.6533 41.6533 0 0 1-21.335-11.4091 41.6973 41.6973 0 0 1-11.405-21.347 41.7124 41.7124 0 0 1 2.371-24.0892 41.683 41.683 0 0 1 15.348-18.7104 41.6477 41.6477 0 0 1 23.15-7.0243 41.4506 41.4506 0 0 1 15.972 3.121 41.4649 41.4649 0 0 1 13.541 9.0299 41.4875 41.4875 0 0 1 9.026 13.5485 41.5076 41.5076 0 0 1 3.121 15.9805Z" fill="#FFB0B1"/><path d="m367.817 121.943-11.361 26.527-10.022 17.607h-32.081l-9.358-24.073 3.793-24.964h24.501l15.819-.892 5.343-1.784 3.445 1.955 9.921 5.624Z" fill="#575A89"/><path opacity=".1" d="M363.904 86.5824s7.086 1.5118.741 6.7173c-6.346 5.2056-28.239 21.7593-28.239 21.7593s7.691 6.854 6.099 14.881l25.479-14.21 4.532-22.7377s.509-6.8332-8.612-6.4099Z" fill="#000"/><path opacity=".1" d="m341.417 115.059-16.206 2.676s3.344 12.372 1.672 15.884c-.051.109-.093.222-.126.338l-6.613 17.884 4.956 14.045 17.153-23.408-5.847-8.859s6.18-8.194 9.856-11.036c3.677-2.842-4.845-7.524-4.845-7.524Z" fill="#000"/><path d="m341.417 114.369-16.206 2.671s3.344 12.371 1.672 15.884c-.051.109-.093.222-.126.337l-6.613 17.885 4.956 14.044 17.153-23.422-5.847-8.86s6.18-8.193 9.856-11.036c3.677-2.842-4.845-7.503-4.845-7.503Z" fill="#DCE6F2"/><path d="M364.584 85.247s7.086 1.5118.736 6.7173c-6.351 5.2056-28.914 23.0947-28.914 23.0947s8.356 5.518 6.769 13.541l25.479-14.206 4.532-22.7371s.504-6.8332-8.602-6.4099Z" fill="#575A89"/><path opacity=".1" d="M323.191 108.095s1.547 2.893 8.371 8.108c0 0-11.362 6.047-7.016 14.549l-17.38-4.536-2.674-8.36 18.699-9.761Z" fill="#000"/><path d="M322.521 107.43s1.546 2.892 8.371 8.108c0 0-11.362 6.017-7.016 14.543l-17.375-4.535-2.674-8.355 18.694-9.761Z" fill="#575A89"/><path opacity=".1" d="m367.817 121.943-11.361 26.527-10.002 17.607h-32.101l-9.358-24.073 3.788-24.964h6.814c-.111 5.825 2.014 12.669 1.878 15.213-.232 4.183 6.235 26.749 6.235 26.749s13.532-21.901 18.876-23.851c3.359-1.225 10.475-11.414 15.305-18.832l9.926 5.624Z" fill="#000"/><path d="m412.575 261.536-1.154 1.451s8.356 41.962 6.044 51.492a27.0956 27.0956 0 0 0-.67 5.23v.076c-.408 9.696 2.518 22.279 2.518 22.279s2.337 37.089 1.007 52.343H263.884c-.916-22.556-1.903-51.779-1.007-55.019 1.511-5.347 4.533-24.743 4.533-24.743l.332-9.192s0-8.884.272-18.781c.116-4.45.287-9.121.534-13.263.317-5.211.76-9.6 1.37-11.757.375-1.635.591-3.302.644-4.979 0-.156 0-.317.031-.479 0-.504.05-1.048.07-1.607v-.504c.096-3.245.061-7.095-.045-11.086v-.661c-.086-2.993-.212-6.047-.353-8.949-.438-9.071-1.007-16.741-1.007-16.741l-19.213-63.696 5.177-12.76 14.368-8.808 26.567-16.05c12.958-10.659 21.489-9.379 24.743-8.209.316.107.625.234.926.378.101.05.182.09.257.136.104.049.203.106.297.171a6.1531 6.1531 0 0 0-2.256 1.859 8.2259 8.2259 0 0 0-1.395 3.024c-.17.677-.29 1.366-.357 2.061-.066.731-.091 1.487-.091 2.248.036 1.668.179 3.333.428 4.983v.111c.166 1.179.373 2.333.574 3.417a.2528.2528 0 0 0 0 .055c.232 1.265.464 2.434.62 3.442.03.182.055.348.08.504.111.666.163 1.341.156 2.016.057 1.63.276 3.251.655 4.837.131.666.282 1.376.448 2.117.227 1.008.474 2.106.741 3.225.146.615.302 1.25.463 1.88.06.252.126.504.186.761l.101.398c1.073 4.268 2.236 8.516 2.951 11.086.423 1.512.69 2.444.69 2.444s7.585-12.27 13.638-19.255c.091-.101.172-.196.257-.287.6-.69 1.189-1.32 1.753-1.875 1.234-1.229 2.342-2.106 3.233-2.429.19-.069.374-.155.549-.257 2.478-1.406 6.477-6.51 10.219-11.857.367-.504.725-1.053 1.087-1.572.831-1.2 1.637-2.404 2.398-3.558.584-.882 1.143-1.739 1.672-2.555 2.518-3.92 4.291-6.843 4.291-6.843l3.495-.156.609-.031h.408l15.869-.735s.685.115 1.813.342c.061 0 .121 0 .187.041 5.63 1.118 21.273 4.661 22.23 9.574 1.168 6.017 26.4 14.045 26.4 14.045.332 4.031 6.512 6.687 6.512 6.687s9.357 24.743 6.854 34.438c-2.473 9.575 6.436 33.259 6.673 33.925l-1.707 2.156-42.239 53.462Z" fill="#E8F5FF"/><path opacity=".1" d="M363.899 84.8238s15.446-4.3842 18.957 4.6412c3.51 9.0253 11.362 45.474 11.362 45.474s-20.387 3.845-25.731 0a15.3858 15.3858 0 0 0-10.863-2.842l-11.528 7.856-3.404-1.007s18.442-27.434 22.451-36.757c4.009-9.3225 5.364-13.49-1.244-17.3652Z" fill="#000"/><path d="M363.23 82.808s15.456-4.3841 18.981 4.6412c3.526 9.0253 11.362 45.4748 11.362 45.4748s-20.382 3.845-25.73 0a15.375 15.375 0 0 0-10.858-2.843l-11.538 7.857-3.405-1.008s18.443-27.434 22.452-36.757c4.008-9.3223 5.343-13.4797-1.264-17.365Z" fill="#E8F5FF"/><path opacity=".1" d="M259.548 228.216s11.528 2.842 13.704 9.363c2.176 6.521-8.521 6.687-8.521 6.687s-6.517-11.535-5.183-16.05ZM302.487 276.362s-28.233 57.845-21.716 63.363c6.517 5.518 21.716-63.363 21.716-63.363ZM341.417 233.734s22.558 56.188 18.045 64.866c-4.512 8.678 9.69 0 9.69 0l-27.735-64.866Z" fill="#000"/><path d="M372.829 289.237s-76.189 3.679-53.964 27.419c22.225 23.74 67.834 1.007 67.834 1.007l-13.87-28.426Z" fill="#FFB0B1"/><path opacity=".1" d="M361.804 63.5428a41.5226 41.5226 0 0 1-3.157 15.9342c-.7.0806-1.4.131-2.075.1612-1.008-2.2122-.469-4.7671-.449-7.2011.021-2.434-.876-5.2963-3.218-5.9514-4.668-1.3152-7.892 7.4178-12.495 5.8405-3.525-1.1993-2.603-6.551-4.633-9.6401-1.607-2.444-4.825-3.1344-7.328-4.6664-5.323-3.2705-5.162-8.5012-7.635-13.4498-2.588-5.1854-8.058-3.6535-12.807-.5946-3.606 2.3281-6.718 5.4474-10.576 7.3019-3.339 1.6125-7.091 2.1971-10.793 2.2828a23.6998 23.6998 0 0 1-6.768-.7156 41.687 41.687 0 0 1 17.065-23.913 41.6472 41.6472 0 0 1 28.591-6.7098c10.028 1.3095 19.238 6.2239 25.912 13.8268a41.7023 41.7023 0 0 1 10.361 27.4944h.005Z" fill="#000"/><path d="M308.022 42.64c-3.611 2.3281-6.718 5.4424-10.576 7.3069-3.339 1.6076-7.091 2.1921-10.793 2.2778-4.532.1008-9.412-.6954-12.51-3.971-2.845-3.0235-3.525-7.6748-2.321-11.6407 1.203-3.9659 4.089-7.2565 7.478-9.6401 3.39-2.3836 7.323-4.0314 9.569-7.443 1.189-1.8041 1.763-3.9307 2.75-5.8506 3.158-6.1429 10.259-9.4688 17.123-9.882 6.865-.4133 13.669 1.6327 20.206 3.85 6.537 2.2172 13.124 4.6563 20.024 5.1148 3.072.1915 6.265 0 9.116 1.1641 3.832 1.5571 6.345 5.2812 8.058 9.0707 1.918 4.2733 3.112 8.9397 2.911 13.606-.423 9.9627-7.001 19.7389-4.11 29.2833.766 2.5448 2.201 5.1552 1.435 7.7-1.118 3.7139-5.907 4.5605-9.78 4.7369-1.007-2.2122-.468-4.7722-.448-7.2011.02-2.4289-.877-5.2963-3.213-5.9514-4.674-1.3052-7.897 7.4128-12.49 5.8405-3.5-1.2044-2.594-6.551-4.629-9.6401-1.606-2.4491-4.829-3.1344-7.327-4.6664-5.324-3.2705-5.163-8.5012-7.635-13.4498-2.609-5.2106-8.084-3.6787-12.838-.6148Z" fill="#575A89"/><path d="m234.145 234.399-3.842 1.341s1.51 22.737-3.526 29.258c-5.036 6.521 16.539 22.732 16.539 22.732s29.573-.166 30.409-2.52c.836-2.353-1.511-42.128-1.511-42.128s-15.874-6.188-14.539-16.05c0 0-4.845 23.236-12.027 22.233-7.182-1.002-15.335-7.004-11.503-14.866Z" fill="#E8F5FF"/><path opacity=".1" d="M246.963 256.3c5.599 0 10.138-4.153 10.138-9.277s-4.539-9.277-10.138-9.277-10.138 4.153-10.138 9.277 4.539 9.277 10.138 9.277Z" fill="#000"/><path d="M258.047 235.07s-2.014-61.52-19.55-47.813-17.708 30.1-14.369 34.942c3.339 4.843 14.046 29.087 14.046 29.087 1.675.971 3.556 1.532 5.489 1.635 1.933.104 3.863-.252 5.632-1.039a12.2614 12.2614 0 0 0 4.545-3.486 12.2775 12.2775 0 0 0 2.465-5.173l1.742-8.153Z" fill="#FFB0B1"/><path opacity=".1" d="M367.44 79.2402a1.4788 1.4788 0 0 0-.454-.6954c-.866-.7912-2.729-1.0684-5.539-.8265l.115 1.3304c3.747-.3225 4.488.4233 4.583.5493v.126l.116.1663c.467.6282.798 1.3472.972 2.1108.173.7637.185 1.5551.035 2.3237-.82 4.107-5.862 7.3775-5.912 7.4128l-.121.0706-.075.1159c-2.176 3.2301-14.48 12.3459-17.698 14.7049l-.282-.323c-1.44 1.25-14.101 12.341-14.786 16.589-.444 2.666-3.445 3.699-4.533 3.987-1.148-.872-4.875-3.84-6.814-7.166-1.818-3.13 5.5-9.237 6.144-11.621l-1.007-1.033c-.106.383-9.503 9.172-6.89 13.662 2.095 3.603 5.923 6.687 7.263 7.705-.428 3.89-3.093 26.733-7.187 32.145-5.087 6.728-9.362 40.632-8.889 52.469.418 10.517-2.327 30.382-11.493 38.913a14.6848 14.6848 0 0 1-5.6 3.403c-2.099.698-4.329.913-6.522.629h-.222c-.131 0-13.426 1.36-24.597-8.063-9.14-7.695-14.318-20.253-15.395-37.336h-.222l-.091-4.974a9.6907 9.6907 0 0 0 6.227-3.719 9.703 9.703 0 0 0 1.906-7.002 9.6969 9.6969 0 0 0-3.481-6.365 9.6864 9.6864 0 0 0-6.921-2.168 9.691 9.691 0 0 0-6.488 3.243 9.7053 9.7053 0 0 0-2.424 6.839 9.7052 9.7052 0 0 0 2.996 6.608 9.6921 9.6921 0 0 0 6.74 2.68h.111l.09 4.944-.443.03c1.108 17.637 6.547 30.684 16.116 38.742a37.2559 37.2559 0 0 0 25.992 8.511c.669.073 1.342.11 2.015.111a16.514 16.514 0 0 0 11.583-4.661c9.655-8.995 12.591-29.591 12.132-40.466-.503-12.543 3.984-45.227 8.486-51.179 4.412-5.84 7.086-28.598 7.555-33.007 1.596-.448 5.207-1.864 5.822-5.543.443-2.661 8.899-10.86 14.101-15.4l-.156-.182c2.8-2.045 11.508-8.4957 15.824-12.638 1.34-1.285 2.669-2.5701 4.059-3.7946 1.672-1.4816 3.798-3.8349 4.357-6.6166.19-.9182.191-1.8657.002-2.7843a6.8702 6.8702 0 0 0-1.1-2.5573Z" fill="#000"/><path d="M322.386 128.111c-.212-.146-5.228-3.739-7.741-8.063-2.609-4.49 6.789-13.273 6.889-13.656l1.008 1.033c-.64 2.378-7.958 8.491-6.139 11.615 2.291 3.946 7.116 7.398 7.166 7.433l-1.183 1.638Z" fill="#353146"/><path d="m342.808 107.606-.786-1.083c.161-.116 15.98-11.5652 18.473-15.2691l.08-.1109.116-.0755c.051-.0353 5.092-3.3008 5.913-7.4128a5.5905 5.5905 0 0 0-.034-2.3218 5.5881 5.5881 0 0 0-.973-2.1077l-.116-.1714v-.1209c-.101-.131-.841-.8718-4.588-.5493l-.116-1.3354c2.815-.2419 4.674.0353 5.54.8264.215.1857.374.4285.458.7005a6.8665 6.8665 0 0 1 1.122 2.5554c.196.9196.202 1.8695.016 2.7913-.559 2.7867-2.679 5.14-4.356 6.6165-1.385 1.2246-2.72 2.5197-4.054 3.7946-5.062 4.8528-16.141 12.8751-16.695 13.2731ZM241.689 203.861l-1.334.024.149 8.117 1.334-.024-.149-8.117Z" fill="#E8F5FF"/><path d="M240.244 205.091c5.382 0 9.745-4.366 9.745-9.751s-4.363-9.751-9.745-9.751c-5.382 0-9.745 4.366-9.745 9.751s4.363 9.751 9.745 9.751Z" fill="#587EEC"/><path d="M240.244 203.438c4.47 0 8.094-3.625 8.094-8.098 0-4.472-3.624-8.098-8.094-8.098-4.47 0-8.093 3.626-8.093 8.098 0 4.473 3.623 8.098 8.093 8.098Z" fill="#E8F5FF"/><path d="M284.14 257.419c-.673.001-1.345-.034-2.014-.106a37.3066 37.3066 0 0 1-25.992-8.511c-9.569-8.063-14.998-21.095-16.116-38.747l2.014-.126c1.078 17.083 6.255 29.646 15.401 37.336 11.17 9.398 24.461 8.063 24.592 8.063h.222a14.71 14.71 0 0 0 6.523-.631c2.1-.698 4.015-1.86 5.604-3.401 9.161-8.531 11.906-28.396 11.488-38.913-.504-11.847 3.772-45.752 8.863-52.474 4.457-5.891 7.222-32.443 7.253-32.71l.075-.756.745-.131c.046 0 4.397-.826 4.941-4.082.705-4.243 13.346-15.334 14.781-16.589l1.315 1.512c-5.223 4.535-13.679 12.739-14.102 15.405-.614 3.689-4.225 5.1-5.817 5.543-.503 4.414-3.157 27.167-7.554 33.007-4.502 5.952-8.99 38.636-8.486 51.179.433 10.875-2.473 31.475-12.127 40.465a16.5196 16.5196 0 0 1-11.609 4.667Z" fill="#353146"/><g opacity=".1" fill="#000"><path opacity=".1" d="M366.095 51.63c.826-3.0538 1.823-6.1278 2.518-9.2219-.831 3.1092-1.833 6.1681-2.518 9.2219ZM357.67 75.627c-1.008-2.2122-.469-4.7721-.449-7.2011.02-2.4289-.876-5.2711-3.213-5.9514-4.673-1.3051-7.897 7.4178-12.49 5.8406-3.525-1.2044-2.593-6.5511-4.628-9.6402-1.607-2.4491-4.825-3.1344-7.323-4.6663-5.328-3.2705-5.167-8.5013-7.635-13.4499-2.593-5.1904-8.058-3.6585-12.812-.5946-3.611 2.3281-6.718 5.4474-10.576 7.3069-3.339 1.6076-7.091 2.1921-10.793 2.2778-4.507.1058-9.413-.6954-12.51-3.971-2.387-2.5196-3.248-6.2134-2.755-9.6754-.085.2369-.161.4737-.236.7106-1.209 3.9659-.504 8.6272 2.321 11.6407 3.098 3.2755 8.003 4.0717 12.51 3.9709 3.707-.0856 7.454-.6702 10.798-2.2777 3.868-1.8645 6.975-4.9788 10.576-7.307 4.754-3.0638 10.224-4.5958 12.812.5947 2.468 4.9486 2.312 10.1793 7.635 13.4498 2.519 1.5118 5.717 2.2173 7.328 4.6664 2.015 3.0991 1.123 8.4357 4.629 9.6401 4.588 1.5723 7.811-7.1457 12.484-5.8405 2.337.6551 3.239 3.5275 3.214 5.9514-.026 2.4239-.549 4.9889.448 7.2011 3.873-.1764 8.662-1.0079 9.785-4.7369.155-.5352.226-1.091.212-1.6479-1.637 2.8271-5.847 3.5527-9.332 3.7089Z"/></g><path opacity=".1" d="m448.69 199.795 5.847 6.188s4.679 34.101 7.015 37.291c2.337 3.19 7.857 15.878 2.675 25.408 0 0-1.672 5.185-.67 7.357 1.002 2.172-7.514 13.042-7.514 13.042s-11.196 10.028-13.538 11.535c-2.342 1.506-14.701 13.54-18.876 13.706-4.175.167-5.539 5.352-5.539 5.352l-23.56.837s-13.014-.681-15.844 1.159c0 0 1.511-19.895-13.029-32.937l18.544-6.687s7.02-3.024 9.191-6.183a11.3446 11.3446 0 0 1 5.54-4.178s5.177-3.679 5.343-5.684c.166-2.006 6.331-4.465 6.331-4.465l-3.49-29.807 1.838-49.486s5.847-41.463 18.211-39.12c12.364 2.343 21.525 56.672 21.525 56.672Z" fill="#000"/><path d="m450.704 199.795 5.847 6.188s4.679 34.101 7.016 37.291c2.337 3.19 7.856 15.878 2.674 25.408 0 0-1.667 5.185-.665 7.357 1.002 2.172-7.519 13.042-7.519 13.042s-11.195 10.028-13.537 11.535c-2.342 1.506-14.701 13.54-18.876 13.706-4.175.167-5.54 5.352-5.54 5.352l-23.56.837s-13.023-.681-15.844 1.159c0 0 1.511-19.895-13.028-32.937l18.543-6.687s7.021-3.024 9.191-6.183a11.3536 11.3536 0 0 1 5.54-4.178s5.177-3.679 5.343-5.684c.167-2.006 6.331-4.465 6.331-4.465l-3.49-29.807 1.838-49.486s5.847-41.463 18.211-39.12c12.364 2.343 21.525 56.672 21.525 56.672Z" fill="#E8F5FF"/><path opacity=".1" d="M428.968 249.784s17.209-4.535 21.721 1.008c4.513 5.544-21.721-1.008-21.721-1.008ZM424.959 257.389c5.847 4.097 23.892 4.263 23.892 4.263l-23.892-4.263ZM433.813 277.868c.503.167 12.404 12.876 17.4 9.031 4.996-3.845-17.4-9.031-17.4-9.031ZM273.539 171.207s3.495 24.078 1.773 33.884c-1.723 9.807 4.563 21.956 4.563 21.956l-6.336-55.84Z" fill="#000"/><path d="M196.162 180.998c-4.029 3.16-6.97 10.638-9.101 18.857-3.716 14.337-4.93 30.962-4.93 30.962s-32.081-7.358-29.744-10.699c1.47-2.101-.504-17.935-2.151-29.414-.982-6.783-1.858-12.049-1.858-12.049s58.813-6.354 47.784 2.343Z" fill="#FFB0B1"/><path opacity=".1" d="M196.162 180.328c-4.029 3.165-6.97 10.638-9.101 18.857a36.9946 36.9946 0 0 1-19.672.507 37.0135 37.0135 0 0 1-17.153-9.653c-.982-6.788-1.858-12.054-1.858-12.054s58.813-6.35 47.784 2.343Z" fill="#000"/><path d="M213.406 162.318a37.1436 37.1436 0 0 1-8.739 23.949c-5.647 6.7-13.481 11.186-22.115 12.663a37.0902 37.0902 0 0 1-25.064-4.593c-7.55-4.443-13.287-11.416-16.194-19.684a37.1602 37.1602 0 0 1 .311-25.494c3.108-8.194 9.013-15.025 16.67-19.282a37.087 37.087 0 0 1 25.168-3.98c8.595 1.687 16.317 6.363 21.799 13.2 5.283 6.585 8.162 14.776 8.164 23.221Z" fill="#FFB0B1"/><path opacity=".1" d="M242.656 394.407H232.08l-.891-18.691-.932-19.346s2.402-.358 6.23-.892l1.546-.207h.126c.836 3.926 1.662 7.958 2.458 11.984a123.2572 123.2572 0 0 1 2.06 21.669v1.481c.03 1.346 0 2.691-.021 4.002Z" fill="#000"/><path d="M240.627 394.407H107.992c.574-1.306.957-2.097.957-2.097s10.611-46.452 16.005-66.105a.209.209 0 0 0 0-.05c.674-2.67 1.488-5.303 2.438-7.887.061-.176.141-.344.237-.504 2.669-4.344 6.013-9.025 1.334-15.712-4.679-6.687-3.022-36.112-3.022-36.112s5.681-25.08 11.695-38.454a17.9744 17.9744 0 0 1 3.817-5.544 15.628 15.628 0 0 1 1.672-1.421c.449-.337.916-.648 1.4-.932l.096-.06a20.1905 20.1905 0 0 1 8.224-2.555c2.055-.215 4.13-.158 6.169.171 9.751 1.431 17.557 3.825 23.762 6.551 16.816 7.393 21.907 17.3 22.008 17.507l.04.085c.675 1.577 10.546 24.637 14.102 35.396.921 2.802 1.425 4.772 1.224 5.311-1.008 2.671 7.685 36.107 7.685 36.107s4.029 16.126 8.058 35.028c.176.786.342 1.572.503 2.368.721 3.432 1.436 6.929 2.126 10.422a122.5774 122.5774 0 0 1 2.06 21.82c.074 2.281.089 4.503.045 6.667Z" fill="#EB5569"/><path opacity=".1" d="M152.054 205.474s-9.15-3.527-9.04 1.824c.111 5.352 2.231 7.912 1.562 8.693-.67.781.332 5.463.332 5.463s12.364 0 18.045 2.56c5.681 2.56 26.621 7.689 29.296 9.252 2.674 1.562 12.59 8.566 12.59 8.566l.892-13.263s-10.249-8.471-27.065-12.815c-16.816-4.344-26.612-10.28-26.612-10.28Z" fill="#000"/><path d="M152.054 204.804s-9.15-3.528-9.04 1.824c.111 5.352 2.231 7.912 1.562 8.693-.67.781.332 5.462.332 5.462s12.364 0 18.045 2.565c5.681 2.565 26.621 7.69 29.296 9.247 2.674 1.558 12.59 8.567 12.59 8.567l.902-13.223s-10.249-8.471-27.065-12.815c-16.816-4.344-26.622-10.32-26.622-10.32Z" fill="#EB5569"/><path opacity=".1" d="M179.678 236.723s17.486 18.942 16.595 24.188c-.892 5.246-16.595-24.188-16.595-24.188ZM151.274 305.151s-12.817 11.817-16.595 12.487c-3.777.671 2.896 2.898 7.237 1.119 4.342-1.779 13.598-6.46 13.598-6.46l-4.24-7.146Z" fill="#000"/><path d="M245.834 394.407h-29.89c-4.18-3.629-8.133-6.99-10.652-9.011-4.029-3.235-6.934-7.997-8.788-11.827-.418-.872-.78-1.688-1.088-2.429a40.4664 40.4664 0 0 1-1.45-3.905l22.134-13.153a34.4966 34.4966 0 0 1 3.44 3.367l.267.307c1.229 1.451 2.312 3.099 2.407 4.45.111 1.572 4.483 7.654 8.95 13.495 4.532 5.941 9.176 11.62 9.483 12.003 0 0 .765 1.044 2.014 2.646.882 1.159 1.97 2.55 3.173 4.057Z" fill="#FFB0B1"/><path opacity=".1" d="M205.242 139.097c-1.062 2.398-2.014 4.888-2.155 7.559-.398 7.71.247 24.949-8.285 28.819-4.225 1.905-8.748-2.277-13.381-2.378-3.334-.071-6.391 2.046-8.426 4.691-2.034 2.646-3.299 5.785-4.774 8.779a60.0462 60.0462 0 0 1-4.628 7.811c-.52.759-1.092 1.482-1.713 2.161a37.0966 37.0966 0 0 1-13.544-9.811 37.1248 37.1248 0 0 1-7.863-14.766 37.1473 37.1473 0 0 1-.583-16.721 37.1396 37.1396 0 0 1 6.814-15.278 37.1057 37.1057 0 0 1 12.828-10.733 37.0699 37.0699 0 0 1 16.235-4.005 37.0618 37.0618 0 0 1 16.343 3.535c5.108 2.407 9.6 5.95 13.132 10.357v-.02Z" fill="#000"/><path d="M202.417 145.295c-.403 7.71.247 24.949-8.29 28.815-4.225 1.904-8.748-2.273-13.381-2.374-3.334-.076-6.386 2.046-8.426 4.687-2.039 2.64-3.293 5.785-4.774 8.783a60.1588 60.1588 0 0 1-4.628 7.811c-1.038 1.471-2.186 2.948-3.783 3.774-2.78 1.452-6.149.635-9.13-.297-3.868-1.22-7.679-2.594-11.433-4.122.086-.567.13-1.14.131-1.713-.111.211-.231.408-.352.619l-.237.414c-.428.755-.846 1.511-1.229 2.287-.146.298-.287.605-.413.913a11.6214 11.6214 0 0 0-.942 3.608c-.256 3.361 1.401 6.551 2.871 9.574 5.656 11.696 9.151 25.373 4.895 37.644-1.843 5.336-5.036 10.078-7.368 15.233a49.241 49.241 0 0 0-3.439 29.117c1.163 6.108 3.495 12.155 2.921 18.348-1.008 10.658-10.194 18.59-19.395 24.043-4.971 2.933-11.055 5.543-16.3326 3.225 3.3646-3.931 4.2306-9.368 4.9556-14.498 1.984-13.993 3.974-27.992 5.968-41.998.796-5.573 1.59-11.146 2.382-16.72 1.481-10.471 2.982-21.059 2.055-31.596-.675-7.766-2.579-16.01.786-23.04 1.777-3.724 4.945-6.808 5.932-10.819.811-3.26.056-6.727.59-10.048.292-1.511.786-2.976 1.47-4.354a21.3995 21.3995 0 0 1 3.374-5.15c-1.349-.393-2.608-.933-3.374-2.061 2.166-1.411 2.493-4.591 1.511-6.98-.982-2.388-2.946-4.208-4.714-6.092-1.768-1.885-3.47-4.082-3.691-6.652-.429-4.893 4.457-8.683 5.318-13.51.871-4.914-2.574-9.691-2.297-14.665.323-6.012 5.842-10.381 11.292-12.915a51.3428 51.3428 0 0 1 26.329-4.536c7.343.696 14.449 2.968 21.772 3.85 4.417.504 8.894.555 13.28 1.331 4.387.776 8.784 2.413 11.871 5.634 8.138 8.491-1.612 15.48-2.075 24.43Z" fill="#575A89"/><path opacity=".1" d="M195.608 373.574c-2.569-1.114-7.242-.448-15.265-2.892s-9.569-13.491-9.569-13.491v-.035c-.096-.252-.841-1.895-5.887-7.649-5.576-6.355-17.627-38.45-17.627-38.45s-10.687-11.485-10.35-15.718c.338-4.233-1.898-15.495-1.677-28.094.222-12.598 24.058-20.953 24.058-20.953 45.896-8.138 35.088 44.804 33.864 48.816-1.224 4.011 5.127 14.845 5.127 14.845-.896 4.717 3.676 12.019 3.676 12.019s1.108 6.46 1.335 8.914c.013.114.038.225.076.333.735 2.313 6.728 4.409 9.166 5.684 2.563 1.341 10.807 13.042 10.807 13.042 1.778 8.592-25.176 24.758-27.734 23.629Z" fill="#000"/><path d="M196.943 371.558c-2.564-1.118-7.243-.448-15.26-2.897-8.018-2.449-9.569-13.485-9.569-13.485v-.036c-.091-.257-.841-1.894-5.888-7.649-5.575-6.355-17.626-38.455-17.626-38.455s-10.687-11.479-10.355-15.712c.332-4.233-1.894-15.496-1.672-28.084.222-12.588 24.043-20.938 24.043-20.938 45.895-8.139 35.088 44.804 33.864 48.815-1.224 4.011 5.127 14.846 5.127 14.846-.897 4.716 3.676 12.018 3.676 12.018s1.108 6.461 1.34 8.915c.008.113.032.225.07.332.736 2.314 6.729 4.41 9.171 5.685 2.559 1.335 10.808 13.041 10.808 13.041 1.788 8.577-25.166 24.743-27.729 23.604Z" fill="#EB5569"/><path opacity=".1" d="M161.523 271.942s20.049 21.165 25.282 21.165c5.232 0-25.282-21.165-25.282-21.165Z" fill="#000"/><path d="M196.942 371.558c-2.563-1.118-7.242-.448-15.259-2.897-8.018-2.449-9.569-13.485-9.569-13.485v-.035c5.313-3.528 18.77-13.491 24.073-17.134 3.732-2.555 6.779-6.309 8.562-8.799.735 2.313 6.728 4.41 9.171 5.685 2.558 1.335 10.807 13.041 10.807 13.041 1.733 8.597-25.221 24.763-27.785 23.624Z" fill="#FF748E"/><g opacity=".1" fill="#000"><path opacity=".1" d="M123.851 175.455c.025.04.061.076.091.116.151-.192.307-.383.468-.564-.171.167-.358.317-.559.448ZM135.535 198.555c.212-2.797 1.708-5.261 3.108-7.72-.917-.353-1.833-.711-2.74-1.083.086-.566.13-1.137.131-1.709-1.415 2.52-2.956 4.999-3.173 7.836-.257 3.367 1.4 6.551 2.871 9.575 5.661 11.691 9.151 25.368 4.895 37.643-1.848 5.332-5.036 10.079-7.368 15.234a49.2232 49.2232 0 0 0-3.435 29.112c1.154 6.113 3.49 12.155 2.916 18.348-1.007 10.658-10.188 18.59-19.394 24.037-3.762 2.228-8.159 4.269-12.364 4.122-.39.627-.824 1.225-1.2996 1.789 5.2826 2.334 11.3616-.292 16.3326-3.235 9.211-5.442 18.412-13.354 19.42-24.032.574-6.193-1.763-12.236-2.921-18.348a49.2688 49.2688 0 0 1 3.424-29.112c2.317-5.15 5.54-9.902 7.368-15.234 4.256-12.275.761-25.952-4.895-37.643-1.465-3.044-3.132-6.214-2.876-9.58Z"/><path opacity=".1" d="M204.482 120.925c-.496-.508-1.028-.98-1.592-1.411 6.104 7.922-2.709 14.654-3.147 23.181-.393 7.71.251 24.954-8.285 28.814-4.22 1.91-8.748-2.272-13.376-2.373-3.339-.071-6.391 2.051-8.431 4.691-2.04 2.641-3.294 5.785-4.769 8.779a60.447 60.447 0 0 1-4.634 7.811c-1.007 1.476-2.185 2.948-3.787 3.779-2.77 1.446-6.139.635-9.126-.302-2.904-.914-5.781-1.922-8.632-3.024a10.814 10.814 0 0 1-.131 1.567c3.757 1.532 7.57 2.906 11.438 4.122 2.981.938 6.35 1.749 9.125.303 1.597-.832 2.755-2.308 3.788-3.785a59.5118 59.5118 0 0 0 4.628-7.805c1.481-2.994 2.73-6.143 4.774-8.784 2.045-2.641 5.092-4.757 8.426-4.686 4.633.1 9.161 4.283 13.381 2.373 8.537-3.86 7.887-21.104 8.285-28.815.463-8.964 10.213-15.949 2.065-24.435Z"/></g><path opacity=".1" d="M138.119 191.697c-.428.756-.846 1.511-1.229 2.287-.146.298-.287.605-.413.913-2.639-2.661-9.065-8.985-12.651-10.946.872-1.87 2.008-3.604 3.374-5.15 0 0 8.547 4.52 10.919 12.896Z" fill="#000"/><path d="M138.356 191.284c-1.979-8.965-11.156-13.818-11.156-13.818a21.3995 21.3995 0 0 0-3.374 5.15c3.782 2.071 10.753 9.015 13.064 11.369l1.466-2.701Z" fill="#EB5569"/><defs><linearGradient id="a" x1="368.094" y1="48.0723" x2="368.094" y2="38.8101" gradientUnits="userSpaceOnUse"><stop stop-color="gray" stop-opacity=".25"/><stop offset=".54" stop-color="gray" stop-opacity=".12"/><stop offset="1" stop-color="gray" stop-opacity=".1"/></linearGradient><linearGradient id="b" x1="231050" y1="331838" x2="231050" y2="23136.5" gradientUnits="userSpaceOnUse"><stop stop-color="gray" stop-opacity=".25"/><stop offset=".54" stop-color="gray" stop-opacity=".12"/><stop offset="1" stop-color="gray" stop-opacity=".1"/></linearGradient></defs></svg>