<svg width="140" height="40" fill="none" xmlns="http://www.w3.org/2000/svg"><path d="M51.462 26.1415c-1.728 0-3.078-.42-4.05-1.26-.972-.852-1.488-2.058-1.548-3.618-.012-.348-.018-.9-.018-1.656 0-.756.006-1.308.018-1.656.06-1.524.582-2.7 1.566-3.528.996-.828 2.34-1.242 4.032-1.242 1.14 0 2.13.186 2.97.558.852.372 1.5.846 1.944 1.422.456.576.696 1.17.72 1.782 0 .108-.042.198-.126.27-.072.072-.162.108-.27.108h-2.628c-.12 0-.216-.018-.288-.054-.072-.036-.132-.102-.18-.198-.156-.348-.402-.648-.738-.9-.336-.264-.804-.396-1.404-.396-1.428 0-2.178.756-2.25 2.268-.012.336-.018.858-.018 1.566 0 .696.006 1.218.018 1.566.072 1.584.84 2.376 2.304 2.376.708 0 1.272-.18 1.692-.54.432-.372.648-.936.648-1.692v-.342h-1.692c-.132 0-.24-.042-.324-.126-.084-.096-.126-.21-.126-.342v-1.332c0-.132.042-.24.126-.324.084-.096.192-.144.324-.144H56.7c.132 0 .24.048.324.144.084.084.126.192.126.324v2.052c0 1.02-.234 1.902-.702 2.646-.468.732-1.134 1.296-1.998 1.692-.852.384-1.848.576-2.988.576Zm11.9831 0c-1.488 0-2.634-.354-3.438-1.062-.804-.708-1.242-1.704-1.314-2.988-.012-.156-.018-.426-.018-.81 0-.384.006-.654.018-.81.072-1.272.522-2.262 1.35-2.97.828-.72 1.962-1.08 3.402-1.08 1.452 0 2.592.36 3.42 1.08.828.708 1.278 1.698 1.35 2.97.012.156.018.426.018.81 0 .384-.006.654-.018.81-.072 1.284-.51 2.28-1.314 2.988-.804.708-1.956 1.062-3.456 1.062Zm0-2.196c.528 0 .918-.156 1.17-.468.252-.324.396-.816.432-1.476.012-.12.018-.36.018-.72s-.006-.6-.018-.72c-.036-.648-.186-1.134-.45-1.458-.252-.324-.636-.486-1.152-.486-.996 0-1.524.648-1.584 1.944l-.018.72.018.72c.024.66.162 1.152.414 1.476.264.312.654.468 1.17.468Z" fill="#000"/><path d="M75.385 26.1415c-1.716 0-3.06-.414-4.032-1.242-.96-.84-1.47-2.052-1.53-3.636-.012-.324-.018-.852-.018-1.584 0-.744.006-1.284.018-1.62.06-1.56.582-2.76 1.566-3.6.984-.852 2.316-1.278 3.996-1.278 1.056 0 2.004.18 2.844.54.84.348 1.5.852 1.98 1.512.492.648.744 1.41.756 2.286v.036c0 .096-.042.18-.126.252-.072.06-.156.09-.252.09h-2.43c-.156 0-.276-.03-.36-.09-.084-.072-.156-.198-.216-.378-.168-.612-.432-1.038-.792-1.278-.36-.252-.834-.378-1.422-.378-1.416 0-2.148.792-2.196 2.376-.012.324-.018.822-.018 1.494s.006 1.182.018 1.53c.048 1.584.78 2.376 2.196 2.376.588 0 1.068-.126 1.44-.378.372-.264.63-.69.774-1.278.048-.18.114-.3.198-.36.084-.072.21-.108.378-.108h2.43c.108 0 .198.036.27.108.084.072.12.162.108.27-.012.876-.264 1.644-.756 2.304-.48.648-1.14 1.152-1.98 1.512-.84.348-1.788.522-2.844.522Zm11.7027 0c-1.488 0-2.634-.354-3.438-1.062-.804-.708-1.242-1.704-1.314-2.988-.012-.156-.018-.426-.018-.81 0-.384.006-.654.018-.81.072-1.272.522-2.262 1.35-2.97.828-.72 1.962-1.08 3.402-1.08 1.452 0 2.592.36 3.42 1.08.828.708 1.278 1.698 1.35 2.97.012.156.018.426.018.81 0 .384-.006.654-.018.81-.072 1.284-.51 2.28-1.314 2.988-.804.708-1.956 1.062-3.456 1.062Zm0-2.196c.528 0 .918-.156 1.17-.468.252-.324.396-.816.432-1.476.012-.12.018-.36.018-.72s-.006-.6-.018-.72c-.036-.648-.186-1.134-.45-1.458-.252-.324-.636-.486-1.152-.486-.996 0-1.524.648-1.584 1.944l-.018.72.018.72c.024.66.162 1.152.414 1.476.264.312.654.468 1.17.468Zm7.0259 2.016c-.132 0-.24-.042-.324-.126-.084-.084-.126-.192-.126-.324v-8.46c0-.132.042-.24.126-.324.084-.084.192-.126.324-.126h2.07c.132 0 .24.048.324.144.096.084.144.186.144.306v.72c.66-.78 1.548-1.17 2.664-1.17h.7924c.132 0 .24.042.324.126.084.084.126.192.126.324v1.854c0 .12-.042.228-.126.324-.084.084-.192.126-.324.126h-1.7464c-.492 0-.876.138-1.152.414-.264.264-.396.642-.396 1.134v4.608c0 .132-.048.24-.144.324-.084.084-.192.126-.324.126h-2.232Zm12.0644.18c-1.488 0-2.634-.354-3.438-1.062-.804-.708-1.242-1.704-1.314-2.988-.012-.156-.018-.426-.018-.81 0-.384.006-.654.018-.81.072-1.272.522-2.262 1.35-2.97.828-.72 1.962-1.08 3.402-1.08 1.452 0 2.592.36 3.42 1.08.828.708 1.278 1.698 1.35 2.97.012.156.018.426.018.81 0 .384-.006.654-.018.81-.072 1.284-.51 2.28-1.314 2.988-.804.708-1.956 1.062-3.456 1.062Zm0-2.196c.528 0 .918-.156 1.17-.468.252-.324.396-.816.432-1.476.012-.12.018-.36.018-.72s-.006-.6-.018-.72c-.036-.648-.186-1.134-.45-1.458-.252-.324-.636-.486-1.152-.486-.996 0-1.524.648-1.584 1.944l-.018.72.018.72c.024.66.162 1.152.414 1.476.264.312.654.468 1.17.468Zm7.025 2.016c-.132 0-.24-.042-.324-.126-.084-.084-.126-.192-.126-.324v-8.46c0-.132.042-.24.126-.324.084-.084.192-.126.324-.126h2.07c.132 0 .24.042.324.126.096.084.144.192.144.324v.684c.324-.396.738-.714 1.242-.954.516-.24 1.098-.36 1.746-.36 1.056 0 1.914.36 2.574 1.08.66.708.99 1.704.99 2.988v5.022c0 .12-.042.228-.126.324-.084.084-.192.126-.324.126h-2.268c-.12 0-.228-.042-.324-.126-.084-.096-.126-.204-.126-.324v-4.914c0-.564-.138-.996-.414-1.296-.276-.312-.672-.468-1.188-.468-.504 0-.9.156-1.188.468-.288.3-.432.732-.432 1.296v4.914c0 .12-.042.228-.126.324-.084.084-.192.126-.324.126h-2.25Zm13.925.18c-.636 0-1.218-.12-1.746-.36-.516-.252-.924-.588-1.224-1.008-.288-.432-.432-.906-.432-1.422 0-.828.336-1.494 1.008-1.998.684-.504 1.62-.852 2.808-1.044l2.25-.342v-.252c0-.456-.096-.792-.288-1.008-.192-.216-.516-.324-.972-.324-.276 0-.504.048-.684.144-.18.096-.366.228-.558.396-.168.144-.294.24-.378.288-.036.096-.102.144-.198.144h-1.962c-.12 0-.222-.036-.306-.108-.072-.084-.102-.18-.09-.288.012-.324.168-.684.468-1.08.312-.396.78-.738 1.404-1.026.636-.288 1.416-.432 2.34-.432 1.476 0 2.568.33 3.276.99.708.648 1.062 1.524 1.062 2.628v5.472c0 .12-.042.228-.126.324-.084.084-.192.126-.324.126h-2.088c-.12 0-.228-.042-.324-.126-.084-.096-.126-.204-.126-.324v-.63c-.264.372-.636.678-1.116.918-.468.228-1.026.342-1.674.342Zm.846-2.052c.552 0 .996-.18 1.332-.54.348-.36.522-.888.522-1.584v-.252l-1.53.27c-1.08.192-1.62.57-1.62 1.134 0 .3.126.54.378.72.252.168.558.252.918.252ZM14.2208 4.98869c1.4247-.49952 2.9905.17416 3.4966 1.50404.3874 1.01818.0407 2.12496-.7811 2.81256l.4441 1.21101.7065.8153c.1613.1866.4059.2758.6511.2456.6611-.0813 1.318-.0844 1.9613-.0168.218.0232.4349-.0488.5914-.2009l.5098-.4934.3759-1.09425c-.3198-.43892-.4281-1.0202-.2385-1.57252.3218-.93627 1.3728-1.42017 2.3075-1.03677.8052.32989 1.2433 1.22552 1.0076 2.05897-.1498.53086-.5288.92847-.9954 1.12527l-.4161 1.2126.0949.6682c.0326.2297.169.4303.3683.5506.6699.4065 1.2852.9035 1.8254 1.478.1815.1934.4523.2763.7126.2239l1.3398-.269 1.5136-.8394c.0078-.7443.4056-1.4638 1.1058-1.8522 1.0587-.5869 2.3995-.1925 2.9636.8829.5093.9701.1896 2.1896-.7328 2.7868-.7203.4655-1.5992.4485-2.2776.051l-1.5226.8438-.8502.9031c-.2282.2423-.3095.5849-.2224.9057.0005.0019.0008.0032.0013.0051.149.5528.2394 1.1084.2768 1.6591.0217.3281.2074.6233.4982.7801l1.1097.5982 2.1995.4147c.3877-.3376.9218-.5009 1.4676-.3985.9785.1848 1.6085 1.1533 1.3578 2.1282-.2157.8348-1.0383 1.3906-1.8985 1.2812-.5866-.0746-1.0602-.4271-1.3145-.9011l-2.2137-.4171-1.3654.1662c-.2517.0311-.4715.1886-.5741.4191-.4086.9099-.9723 1.7468-1.6682 2.4693-.173.1795-.2379.4365-.1751.6771l.3393 1.3099.8378 1.3099c.9215-.1379 1.8804.2594 2.4124 1.0914.7151 1.1178.3907 2.5978-.7223 3.319-1.1124.7211-2.6262.4073-3.3553-.6965-.5105-.7728-.5161-1.7261-.1023-2.4824l-.8894-1.3903-1.0935-.897c-.1619-.1336-.3826-.1689-.5802-.0987-.2193.0781-.4429.1479-.6716.2088-1.2427.3311-2.4956.3738-3.6873.1713-.1747-.0293-.3534.0204-.487.1359l-.5868.5085-.4365 1.0718c.2953.4563.3707 1.0423.1508 1.583-.3738.9176-1.4502 1.3426-2.3618.9084-.7851-.3739-1.1728-1.2924-.891-2.1117.1794-.5218.5792-.8979 1.0562-1.0684l.4835-1.1879-.0898-1.0433c-.8719-.5444-1.6477-1.243-2.2821-2.0687l-1.4912.1468-1.3957.6881c.0091.9335-.47268 1.8216-1.31832 2.2515-1.19492.6069-2.6627.0696-3.27801-1.2007-.61513-1.2697-.14596-2.791 1.04895-3.3979.89421-.4543 1.94061-.2679 2.66867.3872l1.31621-.6494.9135-.9768c.0597-.0639.0818-.1538.0591-.2378l-.0003-.0013c-.4222-1.5669-.3791-3.1508.0445-4.6065.0227-.0799.0056-.166-.0483-.2296l-.788-.9384-1.69792-.8884c-.46766.2052-1.02208.2046-1.50965-.0508-.88082-.4614-1.19821-1.5686-.67317-2.4277.46094-.7533 1.44271-1.0393 2.23993-.6531.51604.2498.84893.7171.94734 1.234l1.69787.8883 1.2085.1134c.0839.0081.1657-.0272.219-.0922.5481-.6749 1.2006-1.2707 1.9418-1.7594.2034-.1348.3298-.3581.333-.6014l.0125-1.0935-.4737-1.29047c-1.0269-.07374-1.9559-.69365-2.324-1.66075-.5061-1.32987.2389-2.81301 1.6638-3.31189Z" fill="#EC5863"/><path d="M25.9898 18.4765c-.9169-3.4028-4.4339-5.4223-7.8556-4.5105-3.4217.9118-5.4523 4.4096-4.5354 7.8125.9168 3.4028 4.4339 5.4223 7.8555 4.5105 3.4217-.9118 5.4523-4.4096 4.5355-7.8125Z" fill="#F58A97"/><path d="M20.9484 24.4109c-3.1008.8263-6.2797-.7544-7.5311-3.5905.0354.3187.0955.6388.1815.9581.9168 3.4029 4.4338 5.4223 7.8555 4.5105 3.4218-.9119 5.4523-4.4095 4.5355-7.8125-.0861-.3192-.1949-.6263-.3245-.9199.342 3.0784-1.6163 6.0281-4.7169 6.8543Z" fill="#F07281"/><path d="M11.324 33.496c-.2611-.9691-1.2626-1.5442-2.23702-1.2845-.9744.2596-1.55265 1.2557-1.29156 2.2247.26109.9691 1.26265 1.5442 2.23708 1.2845.9744-.2596 1.5526-1.2557 1.2915-2.2247ZM34.1106 27.9379c-.1725-.64-.834-1.0199-1.4776-.8484-.6436.1715-1.0256.8294-.8531 1.4695.1724.6401.834 1.0199 1.4776.8484.6436-.1715 1.0255-.8294.8531-1.4695ZM30.8429 6.00213c-.254-.94277-1.2284-1.50225-2.1764-1.24964-.948.25261-1.5106 1.22167-1.2566 2.16444.254.94277 1.2284 1.50225 2.1764 1.24963.948-.25261 1.5106-1.22166 1.2566-2.16443ZM20.1955 22.0477c-.2368-.879-1.1453-1.4006-2.0291-1.1651-.8838.2355-1.4083 1.139-1.1715 2.0179.2369.879 1.1453 1.4006 2.0291 1.1651.8838-.2355 1.4083-1.139 1.1715-2.0179ZM24.3108 19.5818c-.1612-.5983-.7795-.9533-1.3811-.793s-.9586.7752-.7974 1.3735c.1612.5983.7796.9533 1.3811.793.6016-.1603.9586-.7753.7974-1.3735ZM19.9578 17.0961c-.1354-.5024-.6546-.8005-1.1597-.6659-.5052.1346-.805.651-.6696 1.1533.1354.5024.6546.8005 1.1597.6659.5052-.1346.805-.651.6696-1.1533Z" fill="#EB5569"/></svg>